<mxfile host="app.diagrams.net" modified="2022-04-07T20:20:11.081Z" agent="5.0 (Windows NT 10.0; Win64; x64) AppleWebKit/537.36 (KHTML, like Gecko) Chrome/100.0.4896.75 Safari/537.36" etag="Qnnsvl7-FR5LCRR2upVa" version="17.4.1" type="github">
  <diagram id="fiJooUiFiS3EH5vuP_ye" name="Page-1">
    <mxGraphModel dx="1888" dy="578" grid="0" gridSize="10" guides="1" tooltips="1" connect="1" arrows="1" fold="1" page="1" pageScale="1" pageWidth="850" pageHeight="1100" background="#ffffff" math="0" shadow="0">
      <root>
        <mxCell id="0" />
        <mxCell id="1" parent="0" />
        <mxCell id="N2KzqtxxcOYXFPVGVM_W-1" value="" style="ellipse;whiteSpace=wrap;html=1;" parent="1" vertex="1">
          <mxGeometry x="118" y="119" width="210" height="481" as="geometry" />
        </mxCell>
        <mxCell id="N2KzqtxxcOYXFPVGVM_W-3" value="&lt;b&gt;Domain&lt;br&gt;(S,A)&lt;/b&gt;" style="text;html=1;strokeColor=none;fillColor=none;align=center;verticalAlign=middle;whiteSpace=wrap;rounded=0;" parent="1" vertex="1">
          <mxGeometry x="193" y="70" width="60" height="30" as="geometry" />
        </mxCell>
        <mxCell id="N2KzqtxxcOYXFPVGVM_W-4" value="&lt;b&gt;Co-domain&lt;br&gt;(S)&lt;br&gt;[ could also be (S,R) ]&lt;br&gt;&lt;/b&gt;" style="text;html=1;strokeColor=none;fillColor=none;align=center;verticalAlign=middle;whiteSpace=wrap;rounded=0;" parent="1" vertex="1">
          <mxGeometry x="545" y="73" width="146" height="30" as="geometry" />
        </mxCell>
        <mxCell id="N2KzqtxxcOYXFPVGVM_W-6" value="s=1, a=E" style="ellipse;whiteSpace=wrap;html=1;" parent="1" vertex="1">
          <mxGeometry x="193" y="152" width="60" height="30" as="geometry" />
        </mxCell>
        <mxCell id="N2KzqtxxcOYXFPVGVM_W-7" value="" style="ellipse;whiteSpace=wrap;html=1;" parent="1" vertex="1">
          <mxGeometry x="513" y="117" width="210" height="481" as="geometry" />
        </mxCell>
        <mxCell id="N2KzqtxxcOYXFPVGVM_W-10" value="" style="shape=image;verticalLabelPosition=bottom;labelBackgroundColor=default;verticalAlign=top;aspect=fixed;imageAspect=0;image=data:image/png,iVBORw0KGgoAAAANSUhEUgAAAhIAAAF4CAYAAAABuhAeAAAgAElEQVR4nO3d/2sbV77/8bc/9Nd2O9VvpZSiceGa7WLTymlJ5YAD6Xid5dLS9Erulksgpa7cJdBLNs46Ccul+VK5aRbKrb+UFsLSVgq3y5Zy7doJxBCpJXHUInFb8kMsUcqSnzRVbvcP0OeHrLP+Is2ZOZqRZOn5AEHimTk6to5GL505c05PtVqtCgAAgIb/1+oKAACAnYsgAQAAtBEkAACANoIEAADQRpAAAADaCBIAAEAbQQKAa4uLizIyMiI9PT2bHoODg5JOp1tdPbTI9PS0DA4ObmoTDz30kMTjcSkUCk2pg23bMjExIb29vTXrYdt2U+rRjXqYRwJof7Zty8mTJ+XSpUtSLBbv/dyyLDl8+LCMjo42pR4jIyOyvLxcdzunk+5TKBRkYGCg7vZYLNaUkJnNZmVoaKju9mQyKUePHg28Ht3ovlZXYCcrlUqyuroqV69evffvSqWyaR/LsiQcDsuePXtk3759EgqFWlRbf9i2LdevX5evvvpKvvnmG1lbW9v0wSYiEolExDRNGR4eln379kk4HG5RbTvHG2+8IRcvXtz28+XlZVleXpZMJiPRaLQFNUO3+/vf/+64/c6dO02qCVqFIOGRbdty+fJleffddyWXyyn3X//2Njs7KyIiiURCjhw5suM+XBcXF+XPf/5zzQ+zrXK5nORyuXv7WpYlJ06c4IOuAaq/+6effsrfF0BLMEbCg8XFRXn88cdlbGzMVYioZXZ2ViKRyI65nlwoFGRwcFD279/vKkTUsry8LENDQ3L8+HGfa9cdstmscp9SqdSEmgDAdgQJlyYmJmT//v3bLl3oqFQqMjY21vZhIp1Oy8DAgHZo2urMmTMyMTHhS1kAgPZAkHChVCrduzThp4mJibb+JnnixAnfy5ydnZXFxUXfy+1kfX19yn122qUyAJ2DIOHC7du3Aym3UqnIuXPnAinbD1sHUfrl8OHDgZTbqUKhkFiW5bjPyy+/3KTaAMBmBIkGRCIRmZubk3w+L9VqVarVqpTLZVlYWFCe+NfNzs62da/EVqZpytTUlGQymXu/c7ValUwmI4lEwlUZxWKx7S/rtJtPPvlEEomEmKa56eeWZcnCwgIDLQG0DHdtaHC68yIUCsno6KiMjo7KxMSEq0siq6urbd81rbrzIhqNSjQalT179sjY2JiyvKtXr0o8Hve7mh0rFArJzMxMq6sBANvQI+FCNBoVwzDEsizJ5/MyMzPj6oN/ZmZm2zfIWn788Uc/qum7WCwmpmnKwsKCLC0tufrWG4/HXfVM7KReGABAfQQJl3766SdZWlqS/v5+T8edOnVKuc+VK1d0qxWodDota2trnmdNPHLkiHIfp9kRAQA7B0EiYI888kirq9B07XqZZnFxUY4fP75trYiHHnpIRkZGZH5+vmk9JbZty/T09KZ1AQYHB+X48eNNWxPAtm1Jp9MSj8e3rU+w/vdgfYLgbWyXW1+H9XYxMjIi09PTTVu3IpvNSjwe37ZeRTPvuCoUCjXfr729vTIxMeFqfhU0SRWBymQyVRFxfMRisZrHlsvlaiwWqxqGUfe4YrHoqh5zc3NV0zS3lWEYRjWVSvn5K1er1arydzYMw/fnrCeVStX83XUfhmHU/bsnEoltr1ckEqnm8/l7++Tz+bqvqYjUfD3y+XzNthCJRKrJZNLz3ySZTDrWYePvurF8y7Ic9/dTKpWqRiKRmnVKJBKef99abcCyrE2vjUqxWKzGYrGadar3Pq6lXC67fg22PkzT1HrPZjKZbX9PwzCqU1NTm/ZLJBKOz12rXKf6WpblqZ75fF7Zzmq9fqp66LxP4A5BImBugkS9Bl4ul5XHujmhFovFpr/B3JwAgrYexHQDg9e/WT6fV+6vChH1ylb9Hm4/DMvlcs0PZzevV7lcbmqQUD1XJpNxVY6q/XsJAMlk0rEsN8F+YWFBK0BsfWwNqCpObWidU4io9xr7GSRSqZTnv8P6lyGCROtwaSNgf/vb35T7PPHEEzV/HgqFZGpqyvHY2dlZZXen01wVhmHIoUOHlHX0ws3lgaeeesrX59zKtm0ZGRnRntZbh2rxItu2ZXh4WGt2VNXCR6rnXn/+kZERrZlKl5eXZWRkpKmXOvbu3eu4/csvv3RVzurqquN2L23EaTyTYRjKy3rT09O+zZCby+VkeHjY9eUOVRuanp4OZOI9t9LptKs7vrZanyn4008/DaBWcIMgEbALFy4o93n66afrbvuP//gPMQzD8fjJycm627LZrOPJ4dixY76vSPrZZ58p93n22Wd9fc6tzp8/79vU3n757W9/68sHiK433nijob/J+mJszbJ7927H7ZcuXXJVztWrV5X7uLnebtu24yDh5557zvH46elpx/eqjkqlIsPDww2P7clms77XzYtCoaAVIjZqZQjqdgSJAKXTaeXdCYlEwvGDPBQKybFjxxzLWF5ernsidLprxDRNOXr0qGPZXhUKBXn77bcd9zFN0/OdIF5ks1k5c+ZM3e2WZW2aUCufz0ssFgusPiIiH3zwQUvvVMlms03tnfHD+m3X9eRyOVc9JG4Ch5vejevXrztuf/755+tuC/KDulKpNLyGzcGDB32qjZ5Whhj4oNXXVjrV3Nycq2t7bgdLqgYL1roOqbpm6Pcgy0wm4+ra78LCgq/Pu5XTdV6n6+Gq69+q183NeBg3j1qvS6PjBdwMXovFYveuuZfLZa1Bqn5TjQ1RtWHV+Ij1RyQSUdZlamrKsYx67+Vyuezq72hZVnVhYaFaLpfvHZvJZFyNW3Dzt3A7gNHpEcRgSzfvm/VxEOt/m3w+7/rvsv5gjERwCBI+yufz1bm5OdeD2bx8kLsZhLT1A9rpxOHmxOlGsVisplIp14MavY621+EUZjaepGupd8LfOrK9Fq9BIpFI3PvwKRaL1bm5uWosFqtZx0aChNMgUNXr4nVwpt9U7V7VnrwM3lO1Dae/g9P7yU1AVZ0L3Pweqve0lyCx9c6QhYWFaiKRqFnPRoOE6txhGEbdQaVeXl+CRHAIEh6Vy+WGR1zr3nKpOqFv/LagenO7HfG+zo9vM24+jBvl9KHpZnS+07dOVe+RlyDh9fVvJEiovrmpPoC8hAm/qXoUan1D3sjLt1annjLVHVRObVvVG+H2A85NL6fTXRxu38ORSEQZqjZqJEi46TFS9WC6DRMEieAwRsKjmzdvNjRgLpFISC6X01pn4k9/+pPj9o2LYTld87Qsy/MiT41c318fk3D69GntMtxyunvhySefVB7/q1/9qu421eh/txKJRFPXGVGNEfjP//xPx+2hUEiWlpaUg36DEA6HJRKJ1N1eLBYd71pwOyBTROR//ud/6m5TjY/4t3/7t5o/X1xcdFxF18tdU+Pj48op969du+aqLKf6fPjhh74PwK5H9Z6KRCLK8VTxeFySyaSf1YJHBIkmMU1TksmkjI+Pa8/8GI1GlauKnjhxQtLptOPJq1lvOsMwJJFIOC721W6cZiL1Y00U0zTlrbfeargct0qlkvKDzM3A11AoJF988YWfVXPtpZdectxe78NT9btv5RQ6vvrqq7rbDMOoO3W+03Ei6sHWW6kGBa+srLguq5azZ896XgagEao7al599VVX5Rw9etT1isvwH0GiSYrFokxOTsrAwID09vZqL6OtWgGyWCw63kaVSCSadqKoVCoyOzsrQ0ND8tBDD8n09HTbT7nsZt6PRly4cKFp3/ZERG7fvu24XXXL4kZugmwQVM9Z78PTaw9SsVisexul0x0vTr1L33zzjeNz/vrXv3ZXOZf7N3J7rmVZMj4+rn28DtVtq88884zrsk6cONFodaCJINEC6x/2g4ODnufOD4fDrlbXrMfNglpBqFQqMjk5KY8//nhT5+vf6IcfflDu87//+791t9WbOMytSCTS9J6Zr7/+2nG7m8s9rdbf3+94WaXeh3y9b7tOZV2+fHnbz1Q9G3v27Km7TXVJ0Gt7UO3vpQdmq8OHD2sfq0v192lm7wj0ESQ86uvrc7U0uBteZ6Zb99Zbb2ldr04mk9qXVfyaZ6FSqcj+/fu1e2RU+vr66m5Lp9OOPSK2bTtOavMv//IvDdWtmT0RbqkmfWoXqjElteZRqXep4uzZs3XLqdW7oerZ2LdvX82fq3rf/DqPeH3eeh544AGfa9IYLlXsHAQJj0KhkKytrd2bzGjjo1wuSyaTkWQy6fokUalU5MUXX/T05nczSdVWjU6FnU6na/7O1WpVMpmMzM3NeXrjj42NBbKSYSgUqluPSqUiJ0+erHvsyZMn6w6kNU2zbVc1dfLtt9+2ugq++M1vfuO4feuEUk69CE6DFmuFD6fr+JZl1Q2IN2/erHuciEhvb6/j9nqcBp+6ed520ayVTBE8goSPQqGQRKNROXr0qKytrUkqlXLVc1AsFuWjjz7y9FxeQ0E8Hg/sG3E0GpXx8XFZWlqSTCajPNGtC2o2O6drpbOzsxKPxzedxAqFgsTjccfeiN///ve+1rFZVOsr7BRO08iLbA8A9XoR1kNmvbEhlUpl2wec0yDMF154wbFeQWjHni0dbtaHwc5AkAhQPB6XlZUVV2FCNa30Vqrb0bZKp9MNz8fvRjQalaWlJVdhYnl5OZBvJdFo1HEcycWLF2VgYEB6enqkp6dHBgYGHAfTmabZ9EFo2Mypp0lk+3TZ9XoR1hcCc+rh2HjdXjU+wstgQKBTESQC1t/f7+oyRKVScbVw0DqvA6MqlYrjKqB+CoVCyjkv1gW1/sTLL7/sSzmGYchf/vIXX8pCY1Tf/jcOlKzXi7A+JsSph2PjCp+1Bl+uM02zJYMBVZdBH3744SbVBLiLINEEBw4ccLWfaoT9uunpaa3R2bOzs03plRC52yvgZpyI07LMugqFgvzrv/5rw+UYhiErKys7euR40Mu1N5Pq2/96L4RTL8L6XQ+hUKhur9ny8vK9D2uneRkaHYC8tramdZzqFs+dMpbHaWA0dhaCRBP4+ca2bdvzZZCNGl0l0AvdwWSNevXVVxterntqakpu3bq1o0OEiMgvfvELx+1uw2s76O/vdwyn670QqvER65wmulq/dOg0PuLZZ5+tu00kmFs1Vb0RrZh9VJdqrEcrV8uFNwSJHeb8+fOOH5KqOSaclhzvBOl0uu43tkwmI5lMRhKJxLYPpEgkIrFYTFKplJTLZTl9+nRHDGpTBQk3c2ts1OoJxZx6Adany1aNj1jnNObiq6++kkKh4PheczMjqIrXMUKqOzJ27drVSHWaThV8vPSg/vzzz41WB5rua3UF8E+PPvqo4/ZSqSRnzpypu92yLJmZmZFLly45ftt588035caNG9r19JPf3bCff/55zZ9vnAxqp0zX7Ydf/vKXjtu9rEWxuLjY0MyJflD1Aly7dq3u77Q1OKxPdFUrLFy6dMnx/ej2soZlWY7frK9du+ap12vrba5bbQ1L7W7Xrl2Of5/V1VXX54g//vGPflULHtEj0QRuZ3JUXTNUXZZYX0Pj1KlTjvvlcrnAJoRaZ9u2q65Jvy8d1PsQafRSx07lpnvdTQ9VqVSSV155xa9qaVP1Anz44Yc1Q3S99TDq3Qaay+Xkww8/rPs8zz//vKKmd6k+2N955x1X5YioJ0wT2XmTOKn+PhcuXHBVzvHjx1secrsZQcKFwcFBGRkZ0b5V0U1Sdlr4R+TuzH1OH8wb19CIx+PKgY6qeemPHz8uvb292tNZnz9/3tV+ft8+Vy8wFIvFbfNHdAvVrbiq4GnbtsRisbYJY069AfU+TOoFBqdA4PTB5PYSguqDvVgsyvz8vKuyPvroI8fXoFV3kTRCNe28m0ux6XTasacWTdCi5ct3FNmwpn0ikajm83lXx5XL5WosFtt0fL3H1NSUY1mRSMTx+GKxuGn/hYUF5XMmk8m6z2dZ1r39LMuqLiwsuPqdq9VqNZlMuvqdI5GI6zLdMk3T1XNvfFiWtekRi8WqyWSyurCwUC2Xy66fO5PJKJ9H18bXo9Yjk8nUPXZubk75N0ilUjWPLZfLyra38dEMqVTK82s8NzdXs6xisei5LK/tVtUmDcNwfP3c/s71XsN1jbQhJ422e8MwlH/veu9DL23B6XyHxhAkXKjXuJPJZDWTyWxr5JlMpjo1NaV8g2w8kWwNAhup3iyJRKLmcaoTh2EYdd+gtY41TbM6NTVVXVhY2FbffD5fnZub8/RB7iWcuJVIJDx/MKgesVjM1Um2XYOE2w/Lqampe69ruVyuplIpz8GsGXQ+/J3Cv5egtP538sLth10ikdj0OpbL5erCwoLytV9/b6q0a5Bw8541TXPT+SKfz3t+rxMkgkOQcMHvD6atj3rflqrVuycTVSCpF0JUb3CnN5ebk1cjj1gs5strs1WxWHQd4Lw+VCeidg0S1WowAavWo1m8fPgbhuFY1tTUlKff0W2PpG59dR5uQkC7BgmdYBjE+xf6GCPhQpD3ZicSCcfpl1XXRROJRN1RzdFoVHmNdnJysuYtVg8++KDjcY2IRCLy/vvvB1J2OBx2PS25V5OTkzI9Pe17uc2gu2LsVpFIRKampnyoUWPqjXnQ2Vd1J8hGqrFM9Vy8eDGw80gqldrRdyKFw+F7A8UblUqlfCkH3hAkXFDNzaBrampKZmZm6m4vlUrKyaeOHDniuF01qFJEak6d/e///u/K43RYliVLS0uBztHQ39+vXHZa1+Tk5I6chyMUCskXX3zRUBmRSESWlpaUc1M0w69//WvX+w4PDztu9zIfhG67CirgplKpwNp6Mx09erThO0465W+xI7W6S2SnWFhY0BrIV+ux9XpfParuaLfXat0M+Kx1eSSfz/t2icMwjKZ1LQbdjV/vskw+n9c6zg3Va+i2u31hYUHr0k8sFrs3nsZpMG0zuf093Pxt3A6KVg1oVMnn875c5jBN0/OlCL/aUK3fyY9272Vw+tZzy8bzab39uLQRHIKEB+Vy2fOAwo2PSCTi6URU77kMw9h0YlcpFouOb9BYLKYc7KkbKEzTrCaTSU93PzRCdb1769+/XC5XM5nMvYfbEOL0/LVeM8uytE/U1Wr9ULc+ANaPsuq9fltDb61QbRiG53o0an0gYr1AsT4g2o18Pl+NxWJ139s6f2cnOgNZG30/+dmGtvKz3SeTSdchMZFIbPtb1DrXRSKRht5/cNZTrVarAs8KhYJcu3ZNVlZWpFgsbrvn3DAM2bVrl4TDYdmzZ8+9f+9kpVJJVldX5erVq1IqlWrOa2FZljz44IMyPDwszzzzTFPvay8UCjIwMFB3u9uuT1U5IiL5fH7H3bO/VTablS+//FK++eabTa+laZoSiUTk+eefp6s4YIVCQZaXl+XKlSti2/a284hpmtLb2yt79+6VJ554wpdpuXcC27bls88+k5WVFcnlcpsmGbMsS5566ik5dOjQjj+ndgqCBDrGxMRE3Zn/1sdm+FGWyN11O3byADcA8AuDLdExnKb9PnjwoKeyHnvssUarAwBdgSCBjlAqlRxvk33kkUc8ladaFVO1LgoAdAuCBDrC7du3Hbd///33rsuybduxdyMSiXTEEuMA4AeCBDqCarzCH/7wB1cLdtm2LSMjI469G6+++qrn+gFApyJIoGM4rXJZqVRkYGBAJiYmJJvNim3bm7Zns1mZnp6Wxx9/3HHVR9M05cCBA77VGQB2Ou7aQMdIp9MyNjYW6HN0wm2fAOAneiTQMeLxeGDTmRuGIalUihABAFsQJNBRZmZmfF9UyrIsWVlZYXImAKiBSxvoSNlsVj799FPHSaVULMuSgwcPEiAAwAFBAh3Ntm25fv26fPfdd3WnIRb551TEnTSlOQA0A0ECAABoY4wEAADQRpAAAADaCBIAAEAbQQIAAGgjSAAAAG0ECQAAoI0gAQAAtBEkAACANoIEAADQRpAAAADaCBIAAEAbQQIAAGgjSAAAAG0ECQAAoI0gAQAAtBEkAACANoIEAADQRpAAAADaCBIAAEAbQQIAAGgjSAAAAG0ECQAAoI0gAQAAtBEkAACANoIEAADQRpAAAADaCBIAAEAbQQIAAGgjSAAAAG0ECQAAoI0gAQAAtBEkAACANoIEAADQRpAAAADaCBIAAEAbQQIAAGgjSAAAAG336RzU09Pjdz0AAEAbqVarrvajRwIAAGjT6pEQcZ9UgFbo6emhjaJt0T7R7rxceaBHAgAAaCNIAAAAbQQJAACgjSABAAC0ESQAAIA2ggQAANBGkAAAANoIEgAAQBtBAgAAaCNIAAAAbQQJAACgjSABAAC0ESQAAIA2ggQAANBGkAAAANoIEgAAQBtBAgAAaCNIAAAAbfe1ugIA2svi4qJ89913cuXKFVlbW5Nisbhpu2VZEg6HZc+ePbJr1y4Jh8Mtqim6TalUktXVVbl69eq9f1cqlU37bGyf+/btk1Ao1KLado+earVa9XxQT49oHIYtbNuW8+fPy+zs7LY3g2ma8t5778no6GiLarez0Ua9yWaz8umnn8rs7KznYxOJhBw5coRA4QHt0z3btuXy5cvy7rvvSi6X83w87VOPlzZKkGiRbDYrBw8e3PZtb6NkMilHjx5tYq06B23UnWw2K6dOnZLl5eWGy0qlUhKPx32oVeejfbqzuLgor7zyyrYvWl4ZhiEzMzO0Tw+8tFHGSDSZbdty/PhxGRoacgwRQNDm5+dlaGjIlxAhIjI2NibT09O+lAVMTEzI/v37Gw4RIiKVSkXGxsYknU77UDNsRY9EE7nphdiIHgl9tFFnpVJJTNMMpOyFhQUuySnQPp0F1T4Nw5BcLsdlDhfokWhD9EKgndy+fTuwsg8fPhxY2egOQbXPSqUi586dC6TsbkaQCFihUJDBwUE5c+ZMq6sCNEWxWKQLGYGIRCIyNzcn+XxeqtWqVKtVKZfLsrCwIJZluSpjdnZWSqVSwDXtLgSJAKXTaRkYGNAaaQy0QiwWk1QqJcVicdOJOpVKeepq/vzzzwOsJbpNIpGQYrEoN27ckPHxcenv77+3LRQKyejoqCwtLUkikXBV3urqalBV7UoEiYDYti1jY2OtrgZQ0/3337/p/1NTU/d6EuLx+KZryKFQSOLxuFy/fl0ikYir8gnPaEQ0GhXDMMSyLMnn8zIzM+NqXMPMzIyrwPvjjz/6UU38A0EiIDdv3nTcnkgkZGpqqkm1ATbr7+8X0zTFsiwpFoty+vRp5Yk6FArJn/70J1flMxYIjfrpp59kaWlpU++DG6dOnVLuc+XKFd1qoQaCRJOZpimZTEZmZmbkF7/4Raurgy62trYmS0tLnkawR6NR170SQCs88sgjra5C1yFINFEymZS1tTWJRqOtrgqgbXBwsNVVABry4IMPtroKHYW1NgKyMSxYluX6Gh/Q7h577LFWVwFoyJNPPtnqKnQUgkSAFhYW5IEHHqAHAh3lhx9+UO4T1GRXgMrf/vY35T5PPPFEE2rSPQgSAWJ2P3QiN/fgM44CrXLhwgXlPk8//XQTatI9GCMBwBM3a3MMDw83oSbAZul0Wtk+E4kES4v7jCABwDW3M1bu27cv4JoAm83Pzyvn7jEMQ44cOdKkGnUPLm0AcM1Nt7FlWQwsRlMUCgW5du2afPjhh64mQWPQezAIEgBcyWazri5rnDhxogm1QbewbVsef/zxhpYTNwxDZmZmJB6P+1gzrOPSBgBXDh48qNzHsizuUoKvbt682VCISCQSksvlCBEBokcCgNL09LRy2uv1b31AOzBNU1577TUutTUBPRIAHBUKBZmcnFTud/bsWU7YaBvFYlEmJydlYGBAent7Wdo+QAQJAHXZtu3qVk7LsmR8fLwJNQK8KxaLMjY2JoODg1IoFFpdnY5DkABQk23bMjIyorw+bRiGfPLJJ02qFbpNX1+fbzOl5nI5GR4eJkz4jCABoKaTJ08qb6kzDENWVlaY4AeBCYVCsra2JtVqddujXC5LJpORZDLpOmxUKhV58cUXxbbtgGvePQgSALaZmJiQ2dlZ5X4zMzPS39/fhBoB24VCIYlGo3L06FFZW1uTVColhmEojysWi/LRRx81oYbdgSABYJP5+XlXIWJubo5b6tBW4vG4rKysuAoTb7/9dhNq1B0IEgDuSafT8vrrryv3SyQSDK5EW+rv75djx44p96tUKpLNZptQo85HkAAgIndv81StVSByN0QwXwTa2YEDB1zt9/XXXwdck+5AkAAghULB1W2ehAjsBMxn0lwECaDL2bYtL774ovI2z1gsRogAsA1BAuhi63NFqKa/jkQi8v777zepVkBzPProo62uQkcgSABdzM1cEZFIRJaWlpgrAjvG4uKiq/36+voCrkl3IEgAXcrNXBGECLTC4OCgjIyMaM9A+cc//lG5j2EYzIHiE4IE0IXS6bQyRBiGIRcvXiREoOlyuZwsLy/LwMCATExMuA4Utm1LPB5X9rKJ3B04DH/0VKvVqueDenpE47Cu43Z2QB2RSERu3LgRSNmdgDbqbHBw0NXJthGGYUgul2MEfQ20T2c9PT3bfhaJROSll16S3bt3S19f36aAm81m5csvv5TZ2VnloGER2qYbXtooQSJAtd4MfspkMhKNRgN9jp2KNuos6La5LplMytGjR5vyXDsJ7dNZ0O1zbm6OCdUUvLRRLm0AANqKmymudTErq/8IEgCAthLU+IWpqSnmQgkAQQLoQkF+4wMadfr0aVlYWHC9NLiKaZqysLAgp0+f9qU8bEaQCNDU1FRgZUciEcZHQNvMzEzgYcIwDNm9e3egz4HONTo6KtevX5e5uTntQBGJRCSVSsna2pqMjo76XEOsY7AlOhJtFO2M9uldoVCQa9euycrKihSLxW13HRmGIbt27ZJwOCx79uy592/o4a4NdD3aKNoZ7RPtjrs2AABAUxAkAACANoIEAADQRpAAAADaCBIAAEAbQQIAAGgjSAAAAG0ECQAAoI0gAQAAtBEkAACANsb6qYgAABTySURBVIIEAADQRpAAAADaCBIAAEAbQQIAAGgjSAAAAG0ECQAAoI0gAQAAtBEkAACANoIEAADQRpAAAADaCBIAAEAbQQIAAGi7T/fAnp4eP+sB+I42inZG+0SnoEcCAABo0+6RqFarftYD8FVPTw9tFG2L9ol256XHjB4JAACgjSABAAC0ESQAAIA2ggQAANBGkAAAANoIEgAAQBtBAgAAaCNIAAAAbQQJAACgjSABAAC0ESQAAIA2ggQAANBGkAAAANoIEgAAQBtBAgAAaCNIAAAAbQQJAACgjSABAAC03dfqCgAAoMO2bbl+/bp89dVX8s0338jq6qpUKpVN+0QiEQmFQrJ3717ZvXu3RKPRFtW2c/VUq9Wq54N6ekTjMNQxPT0tV65cqfkmEBExDEN27dolL7zwgoyPj7eghjsPbdSd48ePy5kzZ3wtM5lMytGjR30ts9PQPhtTKpXk3Llzkk6na54znZimKX/5y1+kv78/oNp1Bi9tlCDRYtPT0zI5Oel6/0wmQ6J2gTaqVigUZGBgwPdyI5GI3Lhxw/dyOwntU5/Xc2YtiURCZmZmfKpRZ/LSRrm00UK2bcvbb7/d6mqgS/39738PpNxcLhdIuehutm3LyMiIL+2rVCr5UCOsY7BlC50/f95ztxwAdBs/QwT8R5BokVKp5Pu1aaAdRCKRVlcBHYYQ0d4IEi1y7ty5VlcBCMRLL73U6iqgg0xPTytDhGEYMjU1JZlMRqrV6qZHJpORVColsVhMDMMQEZGnnnqqGVXvGgy2bIFsNitDQ0Pbfm4Yhpim6fimYbClO7RRtXrtUIQ7L4JG+3SnVCqJaZqO+8RiMXn//fclFAq5KjObzUpfX5/r/buVlzZKj0QLnDp1qubPjx07RuMGgH9Q9dwmEglJp9OezpvRaJTzrM8IEk22uLgoy8vL235uGIYcOnSoBTUCgPZj27bMzs7W3W6aprz11ltNrBHqIUg02eHDh2v+nN4IAPinzz77zHH7hQsXOGe2CYJEE6XTaSkWi9t+Tm8EAGz24Ycf1t1mmiZjxdoIQaJJbNuWiYmJmttmZmZI1gDwD7ZtOw46f+2115pYG6gQJJrko48+qjn5lGmaEo/HW1AjAGhP169fd9y+e/fuJtUEbhAkmqBUKtWdCrveHRwA0K2+++47x+1c1mgvBIkmOHfuHL0RAODSlStX6m5TzSuB5mPRroCVSqW6tzDRGwEA29m2XXdbb2/vvX+XSiVZXV2Vq1evyo0bN7aNq7AsS8LhsOzZs0f27dvHWLSAECQCVm+ApWVZ9EagbX3wwQd1l2qORCISCoVk79698sQTT8jo6GiTa4dOp5oSu1AoyNmzZ+XixYuO+63P2TM7OyuGYcixY8eYsTUATJEdIKcpiOtNdT0yMlJzwirVcdiMNqrm1D69WD9BHzp0iG98LtE+nfX09NTdZhhGQ6smRyIRWVpaoq0qMEV2m3jzzTdr/tyyLMIAOkalUpHJyUl5/PHHZXFxsdXVQYdrJESI3O3tGBkZ8ak2ECFIBCadTtftnjtx4kSTawMEr1KpyP79+yWdTre6KtjBstls4M+Ry+Vkeno68OfpFgSJgNQLC/RGoNONjY015cMAaMTbb7/tOKgT7hEkAjA9PV1zKmyRu7NYAu2gr68vsLIPHjwYWNnAulgsJqlUSorFolSrValWq1IsFiWVSolhGI7HVioV5XoecIe7Nnxm23bdyacSiYSEw+Em1wioLRQKSbFYlNu3b9/72f333y/9/f2b9rNtW27evCnff/+9vPPOO3VD8kbFYlHS6TR3JiEQlmXJzMxMzfNpOByWcDgsfX19Mjw87Dim4q9//auMj48HWdWuQI+Ez86fP1+34R45cqTJtQGchcNhiUaj9x5bQ4TI3cARjUZlfHxc1tbWZG5uzlXZFy5c8Lu6gFiWJUtLS8ovZf39/coeYKc75OAeQcJHtm3LmTNnam6jNwKdYnx8XFKplHI/TtLQ8fDDD/tW1r59+5T7lEol356vWxEkfHT58uW62+iNQCeJx+NiWZZyPwZdwivVFy4vAyRDoZBEIhHHfTZe2oMegoSPfvzxx7rbTNOUnp4e5UP1LW5oaGjT/tzChFZ54YUXWl0FdCHVrJdbMfFU8AgSO9x///d/t7oK6FK//OUvW10FAG2AILHDeU3nANDuVJfNGNfQXggSALT8/PPPra4COtSDDz7ouN3LuAbVmAomCGwcQWKHUw0kAoLy1VdfKffhJA0dTz75pOP2r7/+2lU5tm079tqapumpXqiNIOGjAwcOKGdT89tLL73U1OcD1qmWcCbkQtfu3bsdt7sdG+Z0J52IyHPPPee6TqiPIOGjcDgsP/30072pWnUeqmuDmUxm0/5Hjx5t0m8H/JPTNPDrXn311SbVBp0mGo06finL5XKubi1WLZC4Z88ez3XDdgQJoAtNT0/LQw89JNPT054Hrk1PT8vk5KTjPoZhyIEDBxqpIrqcanr1gwcPOo5/mJiYcAy7hmEwhbtPCBJAF7py5YpUKhWZnJwU0zRlcHBQpqenJZvNbgsWtm1LNpuV+fl56e3tVYYIEZFjx45x/z4aoloDo1gsytNPPy3pdHpToFhcXJSRkRGZnZ11PP7s2bO+1BMs2gVA7nYV+3UrcSQSkUOHDvlSFrpXf3+/WJblOElfsViUsbExz2VHIhEW6/IRPRIAfGMYhly8eJHeCPhiZmbG9wHs620U/iFIAPBFJBKRXC7H4nTwTTgclo8//ti38gzDkJWVFdqozwgSbUY1EQvgh8OHD/taXjKZdLW0M+DV6OioZDKZhnsmLMuSW7duSX9/v081wzqCRJv53e9+V/MWUNM0JZFISF9fXwtqhU4zOjoqxWJRpqamtE/QhmHI1NSUFItFOXr0KJczEJhoNCq3bt2SRCLh+dhIJCKpVEqWlpZoowHpqVarVc8H9fSIxmFA09BGvSkUCrK8vCzffvut3LlzR1ZXV6VSqWzaJxKJSCgUkr1798ru3buZtbIBtE99tm3L5cuX5fPPP5c7d+5sG4xpmqb09vbK3r17xbIseiA0eWmjBAl0JNoo2hntE+3OSxvl0gYAANBGkAAAANoIEgAAQBtBAgAAaCNIAAAAbQQJAACgjSABAAC0ESQAAIA2ggQAANBGkAAAANoIEgAAQBtBAgAAaCNIAAAAbQQJAACgjSABAAC0ESQAAIA2ggQAANBGkAAAANoIEgAAQBtBAgAAaCNIAAAAbQQJAACgjSABAAC03ad7YE9Pj5/1AHxHG0U7o32iU9AjAQAAtGn3SFSrVT/rAfiqp6eHNoq2RftEu/PSY0aPBAAA0EaQAAAA2ggSAABAG0ECAABoI0gAAABtBAkAAKCNIAEAALQRJAAAgDaCBAAA0EaQAAAA2ggSAABAG0ECAABoI0gAAABtBAkAAKCNIAEAALQRJAAAgDaCBAAA0EaQAAAA2u5rdQUAtJdSqSSXL1+WQqEgpVJJVldXpVKpbNonEolIKBSSvXv3imVZ0t/f36LaotvYti2XL1+Wq1evSqlUkuXl5U3bTdOU3t5e2mYT9VSr1arng3p6ROOwrjEyMrKtcfvNMAzJ5XISDocDfZ6dijbqXTablVOnTmm1XdM05dSpUxKPxwOoWeehfXpXKpXk3LlzMjs76+k40zTlvffek9HR0YBq1pm8tFEubfisVkIOQqVSkc8++yzw50Hns21b4vG4DA0NabfdYrEoY2NjMjIyIrZt+1xDdLvp6WkxTdNziBC52zb3798vExMTAdQMIgQJ392+fbvVVQBcs21bRkZG5OLFi76Ut7y8TJiAb9ZD7uTkZMNlzc7OEiYCQpAAuthvf/tbyeVyvpaZy+XkjTfe8LVMdKeTJ0/6FnJF7oaJ48eP+1Ye7iJI+Ozhhx9udRUAV+bn5wO7DHfx4kXJZrOBlI3uMD8/r3UpQ+XMmTO0TZ8RJHwWDoclEok05bkeffTRpjwPOtM777zjuN0wDEkmk5LP56VarUq1WpVyuSypVMpVG//000/9qiq6jG3b8oc//MFxn/X2WSwW77XPfD4viURCWf6pU6f8qipERKoaNA+DB8lksioijo9yudzqarYt2qizhYUFx7ZlGEY1n887lhGLxRzLME2zSb/NzkP7dKY6/6na59zcnPL8WSwWm/gb7Txe2ig9Em3qgw8+cNyeSCQkFAo1qTboNN99953j9rNnzyrvvz9z5ozj9mKx6LlegIj6/Pfxxx87ts/x8XGxLMuxjI8++kirbtiOINGG0um08iQ8Pj7epNqgE125csVx+zPPPKMsIxwOK0/WgFeFQsHx/Geapqs5IQ4fPuy4/dKlS57rhtoIEm3owoULjtuZrQ1Bo32hVW7evOm4PRaLuSpHFTZyuRy3KfuEINFmstmsciT9wYMHm1QbdKtSqdTqKqBL/fjjj47bn332WddlqXrMVKEF7hAk2oxqpLthGExDjIapplZfXV1VlmHbtuN+XPaAjm+//dZx+wMPPOC6rKeeespx+/fff++6LNRHkGgjpVJJed/0sWPHmlQbdDLVpYuJiQllt+9HH320bTGvjeg5g447d+74VtYvfvELx+3/93//59tzdTOCRBtxM4r4wIEDTagJOt2+ffsct1cqFceprguFguO0xaZp0nOGlnviiScct//www9NqklnI0i0Cdu2lb0RsViM1T7hi3A4rJy4J5fLydNPP71tFsBsNivDw8OOx7733nsN1xHdSXWO83I5QnUZhLFA/iBItInLly87dhOLiPzud79rUm3QDY4cOSKGYTjuUywWZWhoSCYmJqRUKsn09LQMDQ05ttWpqSmWbIa2xx57zHF7oVBoUk3gFkGiTZw4ccJxu2maEo1Gm1QbdINwOCwff/yxq31nZ2fFNE3lKoyJREJOnz7tR/XQpVRT/6fTaW7bbDMEiTawuLionIDq97//fZNqg24yOjoqqVRK2TPhRiqVkpmZGR9qhW7W19fnuL1SqcjJkyeV5WSzWXnzzTf9qhYcECTagOp6smEYDLJEYOLxuKysrGgvNmdZluTzeQZXwhf9/f1imqbjPrOzszIyMiKLi4ubfl4oFGR+fl4GBwdlaGhIcrlckFXFPxAkWqxUKiknoIrH46yrgUD19/fLjRs3JJlMej52dXU1sOXI0Z1ee+015T7Ly8uyf/9+6enpufcYGBiQ119/nQDRZASJFjt37pxynyNHjjShJuh2i4uLysWSaqlUKjI5OSmDg4MMhIMvDh065MvlNjQHQaKF3NzyaVkWt3wiULZtSzwel/379ze0Ymcul5Ph4WFJp9M+1g7dKBQKyRdffNHqasAlgkQLuZmAitkBEaRCoSAjIyNy8eJFx/3cfjusVCoyNjZGmEDDotFowwOBVcfyJc0fBIkWevvttx23MzsgglQoFGR4eFh5PXlqakpu3bolmUzG9foZY2NjXOZAw+LxuORyOc/rthiGca/dOlHNWQF37mt1BbpVOp1WTkDlZsARoMO2bXn11Vcd26BhGPLFF1/cm78kGo3K0tKSLC4uyiuvvKJsvy+++KKsra35Wm90n3A4LEtLS1IqleTy5cvy17/+VWzb3haA1y8D79mzR/bt2yehUGjbrKxbqdbigDs91Wq16vmgnh7ROAwbDA4OKr8JFotFut400UadHT9+XM6cOVN3u2EYsrKyUndxr1KpJLFYTNmGU6kUvWo10D6bI5vNytDQUN3tmUyGif7q8NJGubTRAtlsVnkCTiQShAgEolQqOYYIEXEMESL//Jaout//3Xff1aoj4Ievv/7acbtq8iu4Q5Bogf/6r/9S7vPyyy83oSboRpcvX3bcnkgklMuMi9wdWa+aTC2XyzGdMVrm22+/rbvNNE3m5/EJQaLJSqWScoQ862ogSCsrK47bf/Ob37gua3R0VDky/ubNm67LA/x06dKlutuee+65JtaksxEkmszNLZ+nTp1qQk3Qre7cueO4XbX08la7du1qpDpAIFQD2r0EZjgjSDSRmwmoDMOQffv2NalGANCZnFZUNgyDpe59RJBoos8++0x5yxzraqDVfv75Z0/7r66uOm5nQBuabX5+3nGWVu4k8hdBooneeecd5T6sq4FW+/Of/+x6X1X3sWEYBGM0VaFQkNdff91xH86z/iJINEk6nVauY8C6GmiGvXv3Om6/ePGizM/PK8spFAoyMTHhuA/f/KBrcXFRFhcXPd31Mz8/LwMDA477cGu9/5iQqklGRkaUSy0vLCxw3c4ntNH6CoWC8mQrcjfYHjx4UHbt2rXpxJvNZuXLL7+U2dlZ5aU6Jvypjfap1tPTc+/fsVhMnnzySdm9e7f09fVt6uUqFApy7do1eeedd5Rf1gzDkFu3btFL5oKXNkqQaAI3J27TNJlO2Ee0UWdugm2jLMuSpaWlQJ9jp6J9OlPNSKmLYOseM1u2GTfdxKyrgWZKJpOBlm8YhnzyySeBPgfgRSqVIkQEhCARsFKppLzlU0Tk0KFDTagNcFd/f7+kUqlAyl5fp4PuY+i6//77fSvLMAzWfAkYQSJgqumIRe4O/uGki2aLx+OSyWSU62V4YVmW3Lp1y9UU20A9/f39yhlT3bAsS1ZWVggRASNIBOyZZ56RWCxW801hGIbEYjF56623WlAz4O7S4NevX5dkMtlQoLAsSzKZjCwtLRGK4YsvvvhCIpGI1rGWZUkqlZKlpSVCbRMw2BIdiTaqp1AoyPLysnz77bdy586dmgMyTdOU3t5eeeqpp+RXv/rVtrs6oEb7dK9UKsnq6qpcvXr13r+33i20fut8f3+/7Nu3j/boA+7aQNejjaKd0T7R7rhrAwAANAVBAgAAaCNIAAAAbQQJAACgjSABAAC0ESQAAIA2ggQAANBGkAAAANoIEgAAQBtBAgAAaCNIAAAAbQQJAACgjSABAAC0ESQAAIA2ggQAANBGkAAAANoIEgAAQBtBAgAAaCNIAAAAbQQJAACgjSABAAC0ESQAAIC2+3QP7Onp8bMegO9oo2hntE90Cq0gUa1W/a4HAADYgbi0AQAAtBEkAACANoIEAADQRpAAAADaCBIAAEAbQQIAAGgjSAAAAG0ECQAAoI0gAQAAtBEkAACANoIEAADQRpAAAADaCBIAAEAbQQIAAGgjSAAAAG3/H1HUA1RCUqFfAAAAAElFTkSuQmCC;" parent="1" vertex="1">
          <mxGeometry x="328" y="7" width="185.11" height="131.32" as="geometry" />
        </mxCell>
        <mxCell id="N2KzqtxxcOYXFPVGVM_W-11" value="s=3, a=N" style="ellipse;whiteSpace=wrap;html=1;" parent="1" vertex="1">
          <mxGeometry x="181" y="406" width="60" height="30" as="geometry" />
        </mxCell>
        <mxCell id="N2KzqtxxcOYXFPVGVM_W-12" value="s=8, a=E" style="ellipse;whiteSpace=wrap;html=1;" parent="1" vertex="1">
          <mxGeometry x="193" y="196" width="60" height="30" as="geometry" />
        </mxCell>
        <mxCell id="N2KzqtxxcOYXFPVGVM_W-14" value="s=1, a=N" style="ellipse;whiteSpace=wrap;html=1;" parent="1" vertex="1">
          <mxGeometry x="193" y="244" width="60" height="30" as="geometry" />
        </mxCell>
        <mxCell id="N2KzqtxxcOYXFPVGVM_W-15" value="s = 2" style="ellipse;whiteSpace=wrap;html=1;" parent="1" vertex="1">
          <mxGeometry x="597.5" y="191" width="41" height="25" as="geometry" />
        </mxCell>
        <mxCell id="N2KzqtxxcOYXFPVGVM_W-17" value="s = 1" style="ellipse;whiteSpace=wrap;html=1;" parent="1" vertex="1">
          <mxGeometry x="597.5" y="147" width="41" height="25" as="geometry" />
        </mxCell>
        <mxCell id="N2KzqtxxcOYXFPVGVM_W-18" value="s = 4" style="ellipse;whiteSpace=wrap;html=1;" parent="1" vertex="1">
          <mxGeometry x="597.5" y="272" width="41" height="25" as="geometry" />
        </mxCell>
        <mxCell id="N2KzqtxxcOYXFPVGVM_W-19" value="s = 5" style="ellipse;whiteSpace=wrap;html=1;" parent="1" vertex="1">
          <mxGeometry x="597.5" y="316" width="41" height="25" as="geometry" />
        </mxCell>
        <mxCell id="N2KzqtxxcOYXFPVGVM_W-20" value="s = 6" style="ellipse;whiteSpace=wrap;html=1;" parent="1" vertex="1">
          <mxGeometry x="597.5" y="359" width="41" height="25" as="geometry" />
        </mxCell>
        <mxCell id="N2KzqtxxcOYXFPVGVM_W-21" value="s = 3" style="ellipse;whiteSpace=wrap;html=1;" parent="1" vertex="1">
          <mxGeometry x="597.5" y="231" width="41" height="25" as="geometry" />
        </mxCell>
        <mxCell id="N2KzqtxxcOYXFPVGVM_W-23" value="s = 7" style="ellipse;whiteSpace=wrap;html=1;" parent="1" vertex="1">
          <mxGeometry x="597.5" y="406" width="41" height="25" as="geometry" />
        </mxCell>
        <mxCell id="N2KzqtxxcOYXFPVGVM_W-24" value="s = 8" style="ellipse;whiteSpace=wrap;html=1;" parent="1" vertex="1">
          <mxGeometry x="597.5" y="457" width="41" height="25" as="geometry" />
        </mxCell>
        <mxCell id="N2KzqtxxcOYXFPVGVM_W-25" value="s = 9" style="ellipse;whiteSpace=wrap;html=1;" parent="1" vertex="1">
          <mxGeometry x="597.5" y="509" width="41" height="25" as="geometry" />
        </mxCell>
        <mxCell id="N2KzqtxxcOYXFPVGVM_W-29" value="s=1, a=N" style="ellipse;whiteSpace=wrap;html=1;" parent="1" vertex="1">
          <mxGeometry x="193" y="344.5" width="60" height="30" as="geometry" />
        </mxCell>
        <mxCell id="N2KzqtxxcOYXFPVGVM_W-30" value="" style="endArrow=classic;html=1;rounded=0;exitX=1;exitY=0.5;exitDx=0;exitDy=0;entryX=0;entryY=0.5;entryDx=0;entryDy=0;strokeColor=#FF3333;" parent="1" source="N2KzqtxxcOYXFPVGVM_W-6" target="N2KzqtxxcOYXFPVGVM_W-15" edge="1">
          <mxGeometry width="50" height="50" relative="1" as="geometry">
            <mxPoint x="377" y="320" as="sourcePoint" />
            <mxPoint x="427" y="270" as="targetPoint" />
          </mxGeometry>
        </mxCell>
        <mxCell id="N2KzqtxxcOYXFPVGVM_W-31" value="" style="endArrow=classic;html=1;rounded=0;exitX=1;exitY=0.5;exitDx=0;exitDy=0;entryX=0;entryY=0.5;entryDx=0;entryDy=0;strokeColor=#FF3333;" parent="1" source="N2KzqtxxcOYXFPVGVM_W-12" target="N2KzqtxxcOYXFPVGVM_W-25" edge="1">
          <mxGeometry width="50" height="50" relative="1" as="geometry">
            <mxPoint x="263" y="177" as="sourcePoint" />
            <mxPoint x="607.500000000005" y="213.5" as="targetPoint" />
          </mxGeometry>
        </mxCell>
        <mxCell id="N2KzqtxxcOYXFPVGVM_W-32" value="&lt;h1 style=&quot;font-size: 15px&quot;&gt;&lt;font style=&quot;font-size: 15px&quot;&gt;shared-dynamics&lt;/font&gt;&lt;/h1&gt;&lt;p style=&quot;font-size: 15px&quot;&gt;&lt;br&gt;&lt;/p&gt;" style="text;html=1;strokeColor=none;fillColor=none;spacing=5;spacingTop=-20;whiteSpace=wrap;overflow=hidden;rounded=0;" parent="1" vertex="1">
          <mxGeometry x="-46" y="18.319999999999993" width="225" height="120" as="geometry" />
        </mxCell>
      </root>
    </mxGraphModel>
  </diagram>
</mxfile>
